<?xml version="1.0" standalone="no"?>
<!DOCTYPE svg PUBLIC "-//W3C//DTD SVG 20010904//EN"
 "http://www.w3.org/TR/2001/REC-SVG-20010904/DTD/svg10.dtd">
<svg version="1.0" xmlns="http://www.w3.org/2000/svg"
 width="900.000000pt" height="900.000000pt" viewBox="0 0 900.000000 900.000000"
 preserveAspectRatio="xMidYMid meet">
<metadata>
Created by potrace 1.11, written by Peter Selinger 2001-2013
</metadata>
<g transform="translate(0.000000,900.000000) scale(0.100000,-0.100000)"
fill="#000000" stroke="none">
<path d="M4315 8790 c-16 -4 -71 -8 -121 -9 -103 -1 -276 -17 -344 -31 -25 -5
-76 -14 -115 -20 -143 -24 -200 -35 -211 -42 -5 -4 -34 -10 -62 -14 -29 -4
-55 -11 -58 -15 -3 -5 -13 -9 -23 -9 -25 0 -270 -72 -328 -97 -17 -7 -36 -13
-42 -13 -6 0 -19 -4 -29 -9 -9 -6 -66 -29 -127 -53 -60 -24 -111 -46 -113 -50
-2 -5 -8 -8 -13 -8 -22 0 -346 -157 -355 -172 -3 -5 -20 -15 -37 -23 -18 -8
-50 -26 -72 -40 -22 -14 -48 -28 -57 -32 -10 -3 -18 -9 -18 -14 0 -5 -5 -9
-10 -9 -12 0 -73 -41 -78 -52 -2 -5 -8 -8 -13 -8 -5 0 -44 -25 -86 -55 -43
-30 -86 -60 -97 -67 -10 -7 -47 -35 -82 -63 -34 -27 -73 -58 -85 -67 -46 -36
-232 -204 -302 -273 -154 -152 -437 -478 -437 -503 0 -5 -7 -15 -15 -22 -13
-11 -133 -188 -220 -325 -24 -36 -71 -121 -88 -155 -6 -14 -14 -27 -17 -30 -7
-5 -102 -200 -145 -295 -15 -33 -33 -73 -41 -89 -8 -16 -14 -34 -14 -40 0 -6
-6 -23 -14 -37 -7 -15 -26 -64 -42 -110 -15 -46 -31 -88 -35 -94 -3 -5 -10
-26 -14 -45 -4 -19 -11 -39 -15 -45 -4 -5 -11 -26 -14 -45 -4 -19 -11 -44 -16
-55 -6 -11 -17 -51 -25 -90 -9 -38 -23 -99 -31 -135 -148 -630 -148 -1330 0
-1960 40 -170 51 -216 57 -225 4 -5 10 -29 14 -52 4 -24 10 -45 15 -48 4 -3
11 -22 15 -42 4 -21 10 -42 14 -48 4 -5 18 -41 30 -80 13 -38 29 -83 36 -100
8 -16 25 -58 40 -93 76 -185 189 -409 287 -571 66 -109 207 -318 223 -331 8
-7 15 -18 15 -26 0 -7 6 -17 13 -21 7 -4 19 -18 27 -29 169 -244 626 -687 900
-874 28 -19 71 -50 95 -68 24 -17 48 -32 54 -32 5 0 11 -3 13 -7 4 -10 65 -53
73 -53 4 0 25 -12 48 -27 71 -47 81 -53 112 -68 17 -9 46 -25 65 -37 54 -32
127 -68 139 -68 6 0 11 -4 11 -9 0 -5 13 -12 30 -16 17 -4 30 -11 30 -16 0 -5
6 -9 13 -9 6 -1 30 -9 52 -20 22 -11 46 -19 53 -20 6 0 12 -4 12 -9 0 -5 12
-12 27 -16 15 -3 46 -15 70 -26 23 -10 46 -19 52 -19 5 0 24 -8 43 -17 54 -27
62 -30 96 -37 17 -4 34 -12 37 -17 4 -5 16 -9 28 -9 12 -1 40 -8 62 -16 38
-15 89 -29 185 -54 25 -6 54 -16 65 -20 11 -5 40 -12 65 -16 25 -3 50 -10 55
-14 6 -4 37 -11 70 -15 33 -3 83 -13 110 -20 28 -7 84 -16 125 -20 41 -3 89
-10 105 -15 40 -13 376 -33 550 -33 173 0 509 20 550 32 16 5 76 14 131 20 56
6 113 15 126 20 13 5 51 12 84 16 32 4 64 11 69 15 6 4 34 11 62 15 29 4 55
11 59 16 3 5 13 9 23 9 10 0 49 9 87 21 160 47 211 63 241 76 17 7 36 13 42
13 11 0 20 4 79 33 19 9 38 17 43 17 6 0 29 9 52 19 24 11 55 23 70 26 15 4
27 11 27 16 0 5 5 9 11 9 21 0 357 163 369 179 3 3 16 12 30 19 14 7 43 24 65
37 22 14 48 28 58 32 9 3 17 9 17 14 0 5 5 9 10 9 12 0 73 41 78 53 2 4 8 7
13 7 5 0 44 25 86 55 43 30 86 60 97 67 10 7 47 36 82 63 34 28 73 58 85 67
161 124 474 437 604 603 22 28 60 75 85 105 25 30 50 62 55 71 6 9 36 52 67
95 80 111 206 314 246 394 9 19 19 37 22 40 7 6 150 297 150 304 0 4 11 28 24
55 13 27 27 62 31 78 3 15 10 30 13 33 7 5 45 112 79 220 8 25 18 52 23 61 5
9 12 34 16 55 3 22 10 44 14 49 4 6 12 30 18 55 6 25 20 86 32 135 42 174 76
374 96 570 21 200 29 596 15 730 -6 61 -15 153 -21 205 -17 175 -67 453 -110
610 -30 111 -52 187 -60 205 -5 11 -13 36 -19 55 -9 34 -14 49 -54 160 -22 61
-27 73 -57 145 -80 187 -219 464 -280 555 -6 8 -16 26 -22 40 -7 14 -15 27
-18 30 -3 3 -17 23 -30 45 -45 74 -183 269 -234 332 -28 34 -59 72 -69 85
-116 153 -461 498 -615 615 -13 10 -52 41 -86 68 -35 28 -73 57 -86 65 -12 8
-32 22 -44 31 -54 42 -218 149 -226 149 -6 0 -10 5 -10 10 0 6 -4 10 -9 10 -5
0 -55 28 -112 63 -144 87 -379 201 -559 271 -52 21 -103 42 -112 47 -10 5 -23
9 -29 9 -6 0 -25 6 -42 13 -47 20 -150 52 -247 77 -47 12 -92 26 -101 30 -9 5
-38 12 -65 15 -27 4 -53 11 -59 15 -5 4 -37 11 -69 15 -33 4 -70 11 -84 16
-13 5 -58 14 -100 19 -42 5 -106 15 -142 20 -151 24 -676 46 -735 30z m-2323
-2841 c309 -46 470 -100 646 -217 71 -46 202 -171 259 -245 60 -78 135 -223
162 -317 13 -41 26 -86 31 -100 5 -14 17 -74 26 -135 33 -208 18 -563 -31
-743 -31 -112 -48 -168 -60 -197 -67 -165 -123 -260 -222 -383 -41 -51 -84
-99 -94 -106 -11 -7 -36 -29 -57 -47 -39 -37 -155 -115 -209 -143 -139 -70
-306 -118 -495 -141 -167 -20 -266 -19 -488 6 -139 16 -274 22 -537 26 l-353
5 0 113 0 114 48 6 c185 25 214 37 236 101 14 43 16 149 16 1039 0 654 -4
1002 -10 1022 -15 42 -57 62 -157 74 -149 17 -134 1 -131 137 l3 117 485 2
c267 0 505 6 530 11 63 13 315 14 402 1z m5287 1 c36 -6 109 -18 161 -27 383
-63 696 -286 854 -608 69 -142 101 -258 121 -445 17 -157 17 -259 0 -430 -12
-127 -22 -181 -59 -326 -14 -58 -20 -74 -54 -154 -100 -239 -255 -438 -439
-564 -67 -46 -162 -100 -198 -113 -16 -7 -55 -21 -85 -32 -130 -50 -385 -91
-557 -91 -48 0 -171 10 -273 21 -138 16 -274 22 -536 26 l-351 5 1 112 1 111
95 16 c126 22 157 35 178 73 16 29 17 108 19 1046 2 794 0 1020 -10 1039 -24
47 -58 62 -166 74 -123 13 -123 13 -119 151 l3 91 480 7 c264 4 505 11 535 16
77 13 320 14 399 2z m-2592 -441 c173 -94 342 -229 439 -352 56 -71 145 -231
181 -322 32 -85 75 -243 88 -330 4 -22 11 -62 16 -90 20 -104 32 -289 38 -575
8 -381 2 -367 189 -390 47 -6 89 -13 94 -16 4 -3 8 -54 8 -115 l0 -109 -520 0
-520 0 0 114 0 114 96 12 c109 13 153 29 172 60 7 12 18 61 23 109 17 169 4
762 -21 921 -30 188 -91 349 -172 452 -43 54 -187 198 -198 198 -10 0 -128
-91 -187 -144 -29 -26 -80 -84 -113 -127 -58 -77 -140 -230 -140 -260 0 -8 -4
-19 -8 -24 -5 -6 -16 -50 -26 -100 -15 -79 -17 -145 -14 -540 3 -411 5 -453
21 -478 23 -36 66 -52 176 -67 l91 -13 0 -113 0 -114 -515 0 -515 0 0 109 c0
126 -9 116 120 136 149 23 151 24 169 166 16 124 15 1279 -1 1383 -16 99 -25
106 -173 127 l-110 15 -3 117 -3 117 368 -2 368 -3 3 -107 c1 -60 4 -108 6
-108 2 0 48 44 103 98 54 53 134 122 177 151 89 61 205 129 223 130 6 1 38
-13 70 -30z"/>
<path d="M1600 5684 c-147 -23 -233 -54 -268 -99 l-22 -28 0 -971 c1 -770 3
-976 14 -994 26 -47 105 -87 216 -108 265 -51 457 -37 636 47 103 49 177 109
246 201 104 139 159 282 205 533 27 147 27 687 0 790 -87 337 -255 518 -552
596 -124 32 -367 49 -475 33z"/>
<path d="M6890 5684 c-14 -2 -51 -9 -83 -15 -74 -13 -140 -41 -172 -73 l-25
-25 0 -989 0 -988 28 -26 c42 -40 108 -69 191 -85 274 -51 459 -36 646 53 97
46 190 121 240 195 17 24 33 46 37 49 12 10 75 144 95 205 37 110 44 134 54
187 27 154 40 283 45 463 5 170 3 219 -14 325 -25 151 -39 204 -82 295 -134
288 -370 419 -775 430 -88 2 -171 2 -185 -1z"/>
</g>
</svg>
