<?xml version="1.0" standalone="no"?>
<!DOCTYPE svg PUBLIC "-//W3C//DTD SVG 20010904//EN"
 "http://www.w3.org/TR/2001/REC-SVG-20010904/DTD/svg10.dtd">
<svg version="1.0" xmlns="http://www.w3.org/2000/svg"
 width="256.000000pt" height="256.000000pt" viewBox="0 0 256.000000 256.000000"
 preserveAspectRatio="xMidYMid meet">
<metadata>
Created by potrace 1.11, written by Peter Selinger 2001-2013
</metadata>
<g transform="translate(0.000000,256.000000) scale(0.100000,-0.100000)"
fill="#000000" stroke="none">
<path d="M2068 2073 c12 -2 32 -2 45 0 12 2 2 4 -23 4 -25 0 -35 -2 -22 -4z"/>
<path d="M1946 2043 c-26 -8 -53 -19 -60 -24 -6 -6 -25 -18 -43 -27 -51 -27
-132 -110 -158 -163 -29 -56 -30 -65 -11 -85 12 -11 20 -12 40 -2 14 6 26 15
26 19 0 13 78 21 98 10 11 -6 25 -26 30 -43 15 -49 36 -390 37 -587 0 -95 1
-166 3 -157 2 9 8 16 13 16 13 0 11 -27 -2 -36 -11 -7 -6 -115 7 -149 16 -42
116 6 215 102 44 42 79 81 79 87 0 6 19 31 41 56 45 50 66 93 111 223 44 133
58 220 54 344 -7 206 -63 329 -183 399 -35 21 -56 25 -145 28 -69 2 -119 -1
-152 -11z m177 -30 c-13 -2 -33 -2 -45 0 -13 2 -3 4 22 4 25 0 35 -2 23 -4z
m19 -511 c-5 -1 -7 -14 -4 -27 3 -16 0 -25 -8 -25 -10 0 -11 15 -6 61 8 77 20
97 24 39 2 -24 -1 -46 -6 -48z m258 67 c0 -11 -4 -17 -10 -14 -5 3 -10 13 -10
21 0 8 5 14 10 14 6 0 10 -9 10 -21z m-433 -596 c-3 -10 -5 -4 -5 12 0 17 2
24 5 18 2 -7 2 -21 0 -30z"/>
<path d="M555 1770 c-3 -5 -20 -12 -38 -15 -106 -23 -254 -122 -311 -208 -39
-59 -93 -186 -112 -266 -14 -58 -5 -101 20 -101 16 0 22 6 56 51 23 31 65 42
81 23 6 -8 17 -14 24 -14 7 0 13 -10 13 -22 -1 -13 4 -45 10 -73 5 -27 15
-122 21 -210 6 -88 16 -217 22 -287 6 -70 7 -133 3 -139 -4 -8 -3 -9 4 -5 7 4
12 1 12 -8 0 -19 13 -20 41 -5 11 6 18 17 15 24 -2 7 2 16 10 19 10 4 13 1 9
-7 -4 -6 22 18 57 54 71 75 128 140 128 146 0 3 14 24 30 49 36 51 110 206
110 229 0 9 3 14 8 12 4 -3 8 11 10 30 1 19 9 47 17 64 9 16 13 29 9 29 -4 0
-2 6 4 13 14 18 25 113 15 132 -6 9 -6 46 -1 88 12 97 -3 184 -47 273 -37 75
-47 83 -150 124 -27 10 -63 11 -70 0z m-23 -505 c-2 -33 -3 -71 -3 -84 -1 -13
-7 -30 -15 -38 -7 -7 -11 -20 -8 -28 4 -8 1 -15 -5 -15 -12 0 -13 7 -16 115
-3 82 8 118 32 113 15 -3 17 -13 15 -63z m-391 2 c-13 -13 -26 -3 -16 12 3 6
11 8 17 5 6 -4 6 -10 -1 -17z"/>
<path d="M1658 1649 c-18 -10 -68 -88 -68 -105 0 -5 5 -2 11 6 9 12 9 11 3 -5
-11 -30 -14 -115 -6 -155 6 -25 14 -36 28 -38 17 -2 24 7 37 49 9 28 17 65 17
81 0 17 4 27 10 23 5 -3 7 0 4 8 -3 8 4 38 16 67 16 40 18 55 9 66 -13 16 -37
18 -61 3z m35 -58 c3 -13 1 -18 -9 -14 -17 6 -36 -58 -20 -69 8 -5 7 -8 -1 -8
-7 0 -10 -6 -8 -12 3 -7 1 -20 -5 -28 -8 -13 -11 -13 -22 -1 -10 10 -10 15 -1
18 8 3 10 18 7 45 -4 28 -3 38 5 34 6 -4 9 -1 5 7 -5 14 20 47 36 47 4 0 10
-9 13 -19z m-53 -161 c0 -5 -4 -10 -10 -10 -5 0 -10 5 -10 10 0 6 5 10 10 10
6 0 10 -4 10 -10z"/>
<path d="M2442 1580 c0 -19 2 -27 5 -17 2 9 2 25 0 35 -3 9 -5 1 -5 -18z"/>
<path d="M1459 1487 c-76 -47 -90 -64 -102 -124 -7 -33 -9 -88 -6 -128 7 -73
3 -95 -13 -95 -6 0 -7 7 -4 16 3 8 2 12 -4 9 -6 -3 -10 0 -10 8 0 8 -8 25 -18
38 -11 13 -24 39 -30 57 -19 55 -47 74 -74 50 -7 -7 -29 -25 -49 -40 -31 -23
-37 -34 -42 -77 -4 -30 0 -83 9 -128 8 -43 19 -123 25 -178 12 -125 29 -205
43 -205 30 0 86 22 80 32 -4 7 -9 6 -15 -3 -4 -7 -11 -10 -14 -7 -4 4 -1 13 6
21 12 13 16 13 30 1 30 -27 43 7 42 107 -1 49 3 89 8 89 9 0 13 -15 10 -33 -1
-5 3 -6 8 -3 10 7 25 -7 56 -50 41 -57 64 -79 72 -68 5 6 18 14 31 18 12 4 20
11 17 15 -2 5 7 6 20 3 38 -7 49 34 36 128 -13 87 -16 159 -7 167 3 3 1 12 -4
18 -7 9 -7 22 0 40 6 16 7 31 3 34 -4 3 -9 71 -10 150 -2 147 -6 162 -43 160
-8 -1 -31 -11 -51 -22z m81 -297 c0 -5 -4 -10 -10 -10 -5 0 -10 5 -10 10 0 6
5 10 10 10 6 0 10 -4 10 -10z"/>
<path d="M986 1366 c-27 -19 -56 -46 -64 -61 -7 -15 -9 -24 -3 -21 7 5 11 -5
12 -28 1 -20 2 -39 3 -43 1 -5 6 -27 10 -50 10 -53 27 -69 56 -51 22 14 26 25
34 107 3 29 10 59 16 65 5 7 7 16 3 19 -3 4 -1 7 5 7 6 0 9 7 6 15 -4 8 -2 15
3 15 6 0 10 13 9 30 -1 40 -27 39 -90 -4z m44 -35 c0 -6 -4 -12 -9 -15 -5 -3
-12 -26 -15 -51 -5 -29 -12 -45 -22 -45 -8 0 -14 9 -14 19 0 11 -3 26 -6 35
-3 9 5 26 20 41 26 25 46 33 46 16z m-30 -140 c0 -26 -16 -35 -24 -15 -10 25
-7 34 9 34 8 0 15 -9 15 -19z"/>
<path d="M982 1285 c0 -16 2 -22 5 -12 2 9 2 23 0 30 -3 6 -5 -1 -5 -18z"/>
<path d="M841 1344 c0 -11 3 -14 6 -6 3 7 2 16 -1 19 -3 4 -6 -2 -5 -13z"/>
<path d="M1581 1024 c0 -11 3 -14 6 -6 3 7 2 16 -1 19 -3 4 -6 -2 -5 -13z"/>
</g>
</svg>
